# xmcd
#
# Track frame offsets: 
#        150
#        21635
#        42215
#        58782
#
# Disc length: 1028 seconds
#
# Revision: 3
# Processed by: cddbd v1.5.2PL0 Copyright (c) Steve Scherf et al.
# Submitted via: ExactAudioCopyFreeDBPlugin 1.0
#
DISCID=33040204
DTITLE=Dru Hill - 5 Steps (Single)
DYEAR=1997
DGENRE=R&B
TTITLE0=5 Steps [Radio Edit]
TTITLE1=Never Make A Promise [Hex Hector - Radio Edit]
TTITLE2=Whatever You Want (Urban Blues Jazz 'N' Groove Club Mix Edit)
TTITLE3=In My Bed (Jermaine Dupri's So So Def Mix)
EXTD=
EXTT0=
EXTT1=
EXTT2=
EXTT3=
PLAYORDER=
